<?xml version="1.0" encoding="UTF-8"?>
<svg width="300px" height="300px" viewBox="0 0 300 300" version="1.1" xmlns="http://www.w3.org/2000/svg" xmlns:xlink="http://www.w3.org/1999/xlink">
    <!-- Generator: Sketch 48.2 (47327) - http://www.bohemiancoding.com/sketch -->
    <title>Slice 2</title>
    <desc>Created with Sketch.</desc>
    <defs></defs>
    <g id="Civil" stroke="none" stroke-width="1" fill="none" fill-rule="evenodd">
        <rect id="Rectangle-4" fill="#000000" x="89" y="90" width="124" height="48"></rect>
        <path d="M110.322094,210.733359 L148.574194,207.011772 C149.913929,206.875364 151,207.940095 151,209.389915 L151,237.610085 C151,239.059905 149.913929,240.124636 148.574194,239.988228 L110.322094,236.704066 C106.900134,236.704066 104,234.632774 104,231.796367 L104,216.29074 C104,212.83965 106.997335,211.297992 110.322094,210.733359 Z" id="Rectangle-3" fill="#000000"></path>
        <path d="M157.322094,211.733359 L195.574194,208.011772 C196.913929,207.875364 198,208.940095 198,210.389915 L198,238.610085 C198,240.059905 196.913929,241.124636 195.574194,240.988228 L157.322094,237.704066 C153.900134,237.704066 151,235.632774 151,232.796367 L151,217.29074 C151,213.83965 153.997335,212.297992 157.322094,211.733359 Z" id="Rectangle-3" fill="#000000" transform="translate(174.500000, 224.500000) scale(-1, 1) translate(-174.500000, -224.500000) "></path>
        <polygon id="Triangle" fill="#000000" transform="translate(151.000000, 194.000000) scale(1, -1) translate(-151.000000, -194.000000) " points="151 135 166 253 136 253"></polygon>
        <path d="M139.884873,52 L162.115127,52 C163.284407,52 164.293628,53.3229784 164.369286,54.954955 L165.996059,90.045045 C166.071717,91.6770216 165.049003,93 163.711762,93 L138.288238,93 C136.950997,93 135.928283,91.6770216 136.003941,90.045045 L137.630714,54.954955 C137.706372,53.3229784 138.715593,52 139.884873,52 Z" id="Rectangle-2" fill="#000000"></path>
        <ellipse id="Oval" fill="#000000" cx="151" cy="54" rx="4" ry="11"></ellipse>
        <polygon id="Rectangle-5" fill="#000000" points="6 90.5310883 89 90 89 138 6 127.013296"></polygon>
        <polygon id="Rectangle-5" fill="#000000" transform="translate(254.500000, 114.000000) scale(-1, 1) translate(-254.500000, -114.000000) " points="213 90.5310883 296 90 296 138 213 127.013296"></polygon>
        <path d="M2.1734808,85.2577154 C2.1734808,85.2577154 45.1854441,85.2577154 131.209371,85.2577154 L133.183936,46.2889087 L143.407758,46.2889087 L146.013799,35.2845562 L158.425349,35.2845562 L160.635516,46.2889087 L167.621821,46.2889087 L169.86885,85.2577154 L300.209363,85.2577154 L300.209363,129.675808 L216.522753,142.383864 L169.86885,142.383864 L160.635516,206.082813 L201.449066,209.918149 L201.449066,240.661739 L155.061217,243.822325 L151.191422,257.634663 L146.013799,243.822325 L100.156453,237.042772 L100,209.918149 L140,206.082813 L131.209371,142.383864 L82.9847913,142.383864 L2.1734808,129.675808 C2.1734808,100.063746 2.1734808,85.2577154 2.1734808,85.2577154 Z" id="Path-3" stroke="#FFFFFF" stroke-width="10"></path>
    </g>
</svg>