<?xml version="1.0" encoding="UTF-8"?>
<svg width="300px" height="300px" viewBox="0 0 300 300" version="1.1" xmlns="http://www.w3.org/2000/svg" xmlns:xlink="http://www.w3.org/1999/xlink">
    <!-- Generator: Sketch 48.2 (47327) - http://www.bohemiancoding.com/sketch -->
    <title>Slice</title>
    <desc>Created with Sketch.</desc>
    <defs></defs>
    <g id="Airliner" stroke="none" stroke-width="1" fill="none" fill-rule="evenodd">
        <g id="Group" transform="translate(6.000000, 16.000000)" fill="#000000">
            <rect id="Rectangle" x="130" y="33" width="28" height="165"></rect>
            <ellipse id="Oval" cx="144" cy="32.5" rx="14" ry="32.5"></ellipse>
            <path d="M144,197 C153.516627,197 158,250.542955 158,270 C147.311371,270 139.759967,270 130,270 C130,250.545113 134.483373,197 144,197 Z" id="Triangle" transform="translate(144.000000, 233.500000) scale(1, -1) translate(-144.000000, -233.500000) "></path>
            <polygon id="Left-Wing" points="0.633755922 164.900798 144 83 144 144.685508 0.633755922 185.116183"></polygon>
            <polygon id="Right-Wing" transform="translate(215.683122, 134.058091) scale(-1, 1) translate(-215.683122, -134.058091) " points="144 164.900798 287.366244 83 287.366244 144.685508 144 185.116183"></polygon>
            <polygon id="Left-Aileron" points="88.8098752 259.99999 144 212.358781 144 259.46753 88.8098752 271.91107"></polygon>
            <polygon id="Right-Aileron" points="199.190125 259.641209 199.190125 271.552289 144 259.108749 144 212"></polygon>
        </g>
        <path d="M3.44105426,177.573221 L132.618495,104.481306 C132.618495,82.359187 132.618495,61.1411336 132.618495,40.8271456 C132.618495,24.141874 141.694936,11.8547749 150.238685,11.8547749 C158.782435,11.8547749 167.306716,25.1349875 167.306716,40.8271456 C167.306716,61.4541775 167.306716,82.672231 167.306716,104.481306 L297.036317,177.573221 L297.036317,205.38198 L167.306716,169.214028 L167.306716,219.768622 L166.144498,236.262393 L208.254757,274.744564 L208.254757,291.021145 L158.340873,280.628348 C155.681103,287.556879 152.980374,291.021145 150.238685,291.021145 C147.496997,291.021145 144.736021,287.556879 141.955758,280.628348 L92.1914103,291.021145 L92.1914103,274.744564 L133.932991,236.262393 L132.618495,219.768622 L132.618495,169.214028 L3.44105426,205.38198 L3.44105426,177.573221 Z" id="Path-2" stroke="#FFFFFF" stroke-width="10"></path>
    </g>
</svg>