<?xml version="1.0" encoding="UTF-8" ?>
<svg width="300px" height="300px" viewBox="0 0 300 300" version="1.1" xmlns="http://www.w3.org/2000/svg" xmlns:xlink="http://www.w3.org/1999/xlink">
    <!-- Generator: Sketch 48.2 (47327) - http://www.bohemiancoding.com/sketch -->
    <title>Slice 4</title>
    <desc>Created with Sketch.</desc>
    <defs></defs>
    <g id="Helicopter" stroke="none" stroke-width="1" fill="none" fill-rule="evenodd">
        <polygon id="Rectangle-3" fill="#000000" points="122 247.964655 151 244.080974 151 254 122 257.883682"></polygon>
        <polygon id="Rectangle-3" fill="#000000" transform="translate(165.500000, 250.901354) scale(-1, 1) translate(-165.500000, -250.901354) " points="151 247.883682 180 244 180 253.919026 151 257.802708"></polygon>
        <path d="M151,180 C156.279811,180 168,196.107701 168,201.741748 C163.047358,201.741748 138.560081,201.741748 134,201.741748 C134,196.092817 145.720189,180 151,180 Z" id="Triangle" fill="#000000" transform="translate(151.000000, 190.870874) scale(1, -1) translate(-151.000000, -190.870874) "></path>
        <rect id="Rectangle" fill="#000000" x="134" y="102" width="34" height="78"></rect>
        <ellipse id="Oval" fill="#000000" cx="151" cy="103" rx="17" ry="21"></ellipse>
        <rect id="Rectangle-2" fill="#000000" x="147" y="191" width="8" height="69" rx="4"></rect>
        <rect id="Rectangle-4" fill="#000000" transform="translate(150.500000, 132.000000) rotate(45.000000) translate(-150.500000, -132.000000) " x="27" y="128" width="247" height="8"></rect>
        <rect id="Rectangle-4" fill="#000000" transform="translate(150.496111, 132.000000) rotate(135.000000) translate(-150.496111, -132.000000) " x="26.9961109" y="128" width="247" height="8"></rect>
        <path d="M128.708656,93.9436733 C131.428334,82.445275 138.9673,76.6960759 151.325553,76.6960759 C163.683807,76.6960759 171.087936,82.445275 173.537941,93.9436733 L235.177606,30 L251,46.9936012 L171.377043,123.790269 L171.377043,140.101002 L251,216.55848 L235.177606,230 L171.377043,165.692857 C171.377043,171.287259 171.377043,176.920653 171.377043,182.593037 C171.377043,189.646643 167.671423,195.547914 160.260185,200.296851 L160.260185,240.512527 L182.375487,246.083089 L182.375487,260.349358 L160.260185,257.29667 C159.964798,263.758521 156.87807,266.989447 151,266.989447 C145.12193,266.989447 142.182895,263.758521 142.182895,257.29667 L120.058444,260.349358 L120.058444,246.083089 L142.182895,240.512527 L142.182895,200.296851 C134.727493,194.164654 130.999861,188.263383 131,182.593037 C131.000139,176.922692 131.000139,170.821908 131,164.290686 L65.8735298,230 L51,216.55848 L131,138.788141 L131,123.790269 L51,46.9936012 L67.6150799,30 L128.708656,93.9436733 Z" id="Path-2" stroke="#FFFFFF" stroke-width="10"></path>
    </g>
</svg>
