<?xml version="1.0" encoding="utf-8"?>
<!-- Generator: Adobe Illustrator 23.0.2, SVG Export Plug-In . SVG Version: 6.00 Build 0)  -->
<svg version="1.1" id="Layer_1" xmlns="http://www.w3.org/2000/svg" xmlns:xlink="http://www.w3.org/1999/xlink" x="0px" y="0px"
	 viewBox="0 0 216 216" style="enable-background:new 0 0 216 216;" xml:space="preserve">
<style type="text/css">
	.st0{fill:#2CB7CD;}
	.st1{fill:#00A651;}
	.st2{opacity:0.9;fill:#FFFFFF;}
	.st3{fill:none;stroke:#6D6E71;stroke-width:5;stroke-linecap:round;stroke-miterlimit:10;}
	.st4{fill:#FFFFFF;}
</style>
<circle class="st0" cx="109.49" cy="109.78" r="100.5"/>
<path class="st1" d="M75.69,102.22H56.41c-4.77,0-8.67-3.9-8.67-8.67V56.57c0-4.77,3.9-8.67,8.67-8.67h19.28
	c4.77,0,8.67,3.9,8.67,8.67v36.99C84.36,98.32,80.46,102.22,75.69,102.22z"/>
<path class="st1" d="M168.72,190.98l-20.39,0.01c-4.56,0-8.3-3.73-8.3-8.3v-36.72c0-4.56,3.73-8.3,8.3-8.3h20.02
	c4.56,0,8.3,3.73,8.3,8.3v38.57C173.73,187.55,174.2,187.18,168.72,190.98z"/>
<path class="st1" d="M84.32,207.09c-4.36-0.3-25.91-9.34-27.18-11.5v-36.56c0-2.74,2.24-4.98,4.98-4.98h17.27
	c2.74,0,4.98,2.24,4.98,4.98L84.32,207.09"/>
<path class="st1" d="M203.03,76.02l-66.3,0c-3.19,0-5.79-2.61-5.79-5.79V48.83c0-3.19,2.61-5.79,5.79-5.79h47.59
	c0.2,0,0.39,0.07,0.54,0.2c5.24,4.75,17.08,23.92,19.32,32.78l-2.4-6.09c0.99,2.34,1.43,3.35,2.02,5
	C203.99,75.46,203.6,76.02,203.03,76.02z"/>
<path class="st2" d="M83.14,132.34H29.28c-3.88,0-7.05-3.17-7.05-7.05v-0.25c0-3.88,3.17-7.05,7.05-7.05h53.86
	c3.88,0,7.05,3.17,7.05,7.05v0.25C90.19,129.17,87.01,132.34,83.14,132.34z"/>
<path class="st2" d="M65.12,69.93H11.27c-3.88,0-7.05-3.17-7.05-7.05v-0.25c0-3.88,3.17-7.05,7.05-7.05h53.86
	c3.88,0,7.05,3.17,7.05,7.05v0.25C72.17,66.76,69,69.93,65.12,69.93z"/>
<path class="st2" d="M202.28,164.34h-60.56c-3.88,0-7.05-3.17-7.05-7.05v-0.25c0-3.88,3.17-7.05,7.05-7.05h60.56
	c3.88,0,7.05,3.17,7.05,7.05v0.25C209.33,161.16,206.16,164.34,202.28,164.34z"/>
<path class="st2" d="M151.1,45.8H97.24c-3.88,0-7.05-3.17-7.05-7.05v-0.25c0-3.88,3.17-7.05,7.05-7.05h53.86
	c3.88,0,7.05,3.17,7.05,7.05v0.25C158.15,42.63,154.97,45.8,151.1,45.8z"/>
<path class="st2" d="M206,94.67h-38.26c-3.88,0-7.05-3.17-7.05-7.05v-0.25c0-3.88,3.17-7.05,7.05-7.05H206
	c3.88,0,7.05,3.17,7.05,7.05v0.25C213.05,91.5,209.87,94.67,206,94.67z"/>
<path class="st3" d="M108.52,133.16c-43.19,38.95-81.17,63.62-88.01,56.41c-3.1-3.26,0.67-12.55,9.53-25.54"/>
<path class="st0" d="M54.24,161.99c0,7.64-6.19,13.84-13.84,13.84s-10.69-3.79-14.32-10.76c-3.53-6.78,6.68-16.91,14.32-16.91
	S54.24,154.35,54.24,161.99z"/>
<g>
	<path class="st4" d="M135.63,107.83l-17.22,0.57c-0.41,0.01-0.75-0.31-0.76-0.72l0-0.08c-0.07-2.13,1.61-3.92,3.74-3.99l14.09-0.47
		c0.41-0.01,0.75,0.31,0.76,0.72l0.11,3.21C136.36,107.47,136.04,107.81,135.63,107.83z"/>
	<path class="st4" d="M136.23,103.71l0.48,14.41c0.07,2.17-1.65,4.01-3.82,4.08l-0.08,0c-0.33,0.01-0.6-0.25-0.61-0.57l-0.59-17.77
		c-0.01-0.33,0.25-0.6,0.57-0.61l3.44-0.11C135.95,103.12,136.22,103.38,136.23,103.71z"/>
	<path class="st4" d="M143.67,99.07l-23.12,24.71c-0.85,0.91-2.29,0.96-3.19,0.11l-0.06-0.06c-0.91-0.85-0.96-2.29-0.11-3.19
		l23.12-24.71c0.85-0.91,2.29-0.96,3.19-0.11l0.06,0.06C144.47,96.72,144.52,98.16,143.67,99.07z"/>
</g>
</svg>
